<svg xmlns="http://www.w3.org/2000/svg" viewBox="0 0 16 16"><defs><style>.cls-1{fill:#662481;}</style></defs><title>LA MALGIRBADA comunicació</title><g id="Layer_1" data-name="Layer 1"><path class="cls-1" d="M3.29,4.33H.41v-3H1.55v2H3.29ZM.62,4.11H3.08v-.6H1.33v-2H.62Z"/><path class="cls-1" d="M7.3,4.34H6.1V3.69H4.83v.65H3.62V2.82A1.38,1.38,0,0,1,5,1.3h.89A1.38,1.38,0,0,1,7.3,2.82Zm-1-.22h.77V2.82A1.17,1.17,0,0,0,5.91,1.51H5A1.16,1.16,0,0,0,3.84,2.82v1.3h.77V3.47H6.32ZM6.32,3H4.61V2.63a.46.46,0,0,1,.46-.46h.79a.46.46,0,0,1,.46.46ZM4.83,2.77H6.1V2.63a.25.25,0,0,0-.24-.25H5.07a.25.25,0,0,0-.24.25Z"/><path class="cls-1" d="M7.93,4.84H7A1.29,1.29,0,0,0,5.71,6.28V7.72h1V7.06H8.23v.66h1V6.28A1.29,1.29,0,0,0,7.93,4.84Zm.3,1.5H6.72V6.09a.36.36,0,0,1,.35-.36h.81a.36.36,0,0,1,.35.36Z"/><path class="cls-1" d="M5.12,7.72h-1V5.82l-.87,1.9H2.34l-.87-1.9v1.9h-1V5.55a.69.69,0,0,1,.68-.68h.3a.88.88,0,0,1,.8.52L2.8,6.57l.48-1.06a1.1,1.1,0,0,1,1-.64h0a.82.82,0,0,1,.82.82Z"/><path class="cls-1" d="M3.85,13.88c0,.47-.27.79-1,.79H.5V11.82H2.71c.75,0,1,.28,1,.7a.68.68,0,0,1-.49.66C3.56,13.27,3.85,13.47,3.85,13.88ZM1.48,12.53V13h.91c.19,0,.31,0,.31-.21s-.12-.21-.31-.21ZM2.55,14c.15,0,.27,0,.27-.21s-.12-.2-.27-.2H1.48V14Z"/><path class="cls-1" d="M11.62,13.25a1.28,1.28,0,0,1-1.3,1.42H8.26V11.82h2.06A1.29,1.29,0,0,1,11.62,13.25Zm-1.69.59c.3,0,.66,0,.66-.59s-.36-.6-.66-.6H9.25v1.19Z"/><path class="cls-1" d="M10.8,6.89h1.86v.83H9.81V4.87h1Z"/><path class="cls-1" d="M2.27,8.23c1,0,1.64.47,1.68,1.12H2.9c0-.12-.2-.29-.62-.29s-.77.29-.77.71.19.72.89.72a1.83,1.83,0,0,0,.76-.15v-.17H2.28v-.6H4v1.27a3.07,3.07,0,0,1-1.61.4c-1.1,0-1.86-.5-1.86-1.51S1.24,8.23,2.27,8.23Z"/><path class="cls-1" d="M5.38,8.31v2.85h-1V8.31Z"/><path class="cls-1" d="M9.25,10.59v.57h-1v-.4c0-.26-.06-.33-.31-.33H6.85v.73h-1V8.31H8.07c.79,0,1.18.32,1.18.92a.75.75,0,0,1-.53.81A.51.51,0,0,1,9.25,10.59ZM6.85,9.1v.54h1c.22,0,.38,0,.38-.27s-.16-.27-.38-.27Z"/><path class="cls-1" d="M6.51,11.82H5.6a1.29,1.29,0,0,0-1.31,1.44V14.7h1V14H6.82v.66h1V13.26A1.3,1.3,0,0,0,6.51,11.82Zm.31,1.5H5.3v-.25a.36.36,0,0,1,.35-.36h.81a.36.36,0,0,1,.36.36Z"/><path class="cls-1" d="M14.28,11.82h-.91a1.29,1.29,0,0,0-1.31,1.44V14.7h1V14h1.52v.66h1V13.26A1.29,1.29,0,0,0,14.28,11.82Zm.31,1.5H13.07v-.25a.36.36,0,0,1,.35-.36h.81a.36.36,0,0,1,.36.36Z"/></g></svg>