<svg xmlns="http://www.w3.org/2000/svg" viewBox="0 0 850.39 850.39"><defs><style>.cls-1{fill:#fff;}</style></defs><title>logo_malgi_quadrat_blanc</title><g id="Layer_1" data-name="Layer 1"><path class="cls-1" d="M141.26,181.07H17.72V51.8h48.9v85.05h74.64ZM26.91,171.88H132.07V146.05H57.42V61H26.91Z"/><path class="cls-1" d="M313,181.47H261.44V153.62H206.92v27.85H155.39v-65c0-44.92,30-65,59.66-65h38.26c29.7,0,59.66,20.11,59.66,65Zm-42.33-9.19h33.14V116.43c0-41.21-27.19-55.84-50.47-55.84H215.05c-23.28,0-50.46,14.63-50.46,55.84v55.85h33.14V144.42h72.91Zm0-48.88H197.73V108.27a19.61,19.61,0,0,1,19.58-19.59h33.74a19.61,19.61,0,0,1,19.59,19.59Zm-63.72-9.2h54.52v-5.93a10.4,10.4,0,0,0-10.39-10.39H217.31a10.4,10.4,0,0,0-10.39,10.39Z"/><path class="cls-1" d="M339.8,203h-39c-28.94,0-56.18,19.19-56.18,61.66v61.67h43.2V297.9h65v28.42H396V264.65C396,222.18,368.75,203,339.8,203Zm13,64.08h-65V256.32A15.29,15.29,0,0,1,303.07,241h34.42a15.29,15.29,0,0,1,15.29,15.29Z"/><path class="cls-1" d="M219.46,326.2l-42.33,0,0-81.27-37.2,81.29-39.28,0L63.31,245l0,81.26-42.32,0L21,233.57A29.15,29.15,0,0,1,50.12,204.4H62.64a37.91,37.91,0,0,1,34.48,22.13L120.21,277l20.66-45.27a46.85,46.85,0,0,1,42.58-27.4h.75a35.2,35.2,0,0,1,35.21,35.17Z"/><path class="cls-1" d="M275.76,624.94c2.23,19.7-7.82,34.83-38,38.24l-101,11.43L123,553.35l94.31-10.67c31.83-3.6,43.14,7.4,45.12,24.92,1.66,14.65-5.92,24.55-17.7,30.48C260.35,600.24,273.76,607.26,275.76,624.94Zm-107.21-46,2,17.52L209.27,592c7.75-.87,13.14-1.48,12.15-10.24s-6.38-8.15-14.13-7.27Zm52.34,55.49c6.06-.69,11.45-1.3,10.46-10.06s-6.38-8.14-12.45-7.46L173.43,622l2,17.51Z"/><path class="cls-1" d="M578,441.57C602.16,476,591,507,567.56,523.45l-72.15,50.62-70.1-99.89,72.15-50.63C520.91,407.1,553.87,407.16,578,441.57Zm-44.78,62.48c10.54-7.4,23.31-16.36,8.71-37.17S514.58,455,504,462.43L480.45,479l29.2,41.63Z"/><path class="cls-1" d="M135.43,724,134.75,701C491.51,690.51,691.83,476.53,761.39,385l18.39,14C708.21,493.15,502.15,713.3,135.43,724Z"/><path class="cls-1" d="M462.58,290.72h79.66v35.6h-122v-122h42.37Z"/><path class="cls-1" d="M97.59,348c42,0,70.17,20,72,48.13H124.54c-1.7-5.25-8.65-12.54-26.61-12.54C74.71,383.61,65,396.15,65,414s8,30.68,38.14,30.68a78.88,78.88,0,0,0,32.54-6.44V430.9h-38V405.47h71.86v54.41c-24.75,13.73-45.93,16.95-69,16.95C53.52,476.83,21,455.3,21,412.25,21,369.37,53.52,348,97.59,348Z"/><path class="cls-1" d="M230.64,351.41v122H188.27v-122Z"/><path class="cls-1" d="M396.4,449v24.41H354V456.15c0-10.85-2.71-13.9-13.56-13.9H293.35v31.19H251v-122h94.91c33.73,0,50.51,13.89,50.51,39.49,0,18.64-8,29.49-22.71,34.57C387.75,426.32,396.4,434.46,396.4,449Zm-103-63.73v23.06h42.37c9.49,0,16.61,0,16.61-11.53s-7.12-11.53-16.61-11.53Z"/><path class="cls-1" d="M170.21,797.66l-3.57-5.73-19.5.82-3.07,6-5.58.24,14.39-27.79,6.18-.26,16.69,26.48Zm-20.85-9.25,14.66-.62-7.88-12.62Z"/><path class="cls-1" d="M192.9,777.5l-11.32.89.68,8.66c.38,4.89,1.32,6,6,5.65a39.56,39.56,0,0,0,5.8-.92l.32,4.12a41.82,41.82,0,0,1-6.84,1.16c-7,.55-9.36-1.51-10-9.25l-.71-9-6.63.52-.33-4.2,6.63-.52-.41-5.23,4.63-2,.54,6.85,11.32-.89Z"/><path class="cls-1" d="M221.85,785.17l5.12-.6c-.77,5.3-5.73,8.95-13.66,9.88-9.1,1.06-16.07-2-17-10.1s5.36-12.76,13.86-13.76S225.85,772,227,782l-25.42,3c1,4.58,4.94,6.07,11.27,5.33C218.56,789.6,221,787.68,221.85,785.17ZM201.44,781l19.69-2.3c-1.4-3.45-5-4.63-10.5-4C205.43,775.31,202.12,777.25,201.44,781Z"/><path class="cls-1" d="M261.18,775.39l1.77,11.1-4.72.75-1.6-10c-.9-5.68-3.65-8.34-10.7-7.21-6.83,1.09-11.34,5.09-10.28,11.77l1.41,8.84-4.72.75-3.54-22.23,4.72-.75.79,5c2.21-4.07,6-6.83,12.18-7.81C254.23,764.3,259.69,766.75,261.18,775.39Z"/><path class="cls-1" d="M290.12,773.54l5.05-1c-.33,5.34-5,9.38-12.8,11-9,1.79-16.19-.67-17.79-8.7s4.3-13.14,12.69-14.82,15.76.12,17.73,10l-25.1,5c1.41,4.48,5.42,5.65,11.68,4.4C287.19,778.22,289.43,776.12,290.12,773.54ZM269.43,771l19.44-3.89c-1.67-3.32-5.32-4.21-10.79-3.12C273,765,269.81,767.24,269.43,771Z"/><path class="cls-1" d="M321.12,750.87l4.65-1.12L331,771.6l-4.65,1.12-1.17-4.88c-1.88,4.27-5.43,7.31-11.52,8.77-7.62,1.84-13.25-.18-15.42-8.68L295.64,757l4.65-1.12,2.37,9.87c1.34,5.56,4.29,8,11.27,6.34,6.69-1.61,10.87-6,9.29-12.52Z"/><path class="cls-1" d="M374.87,740.9c1.74,5.81-1.21,10.48-7.13,12.26l-15.23,4.56,2.22,7.39L350,766.52l-7.79-26,19.91-6C368.09,732.78,373.12,735.06,374.87,740.9Zm-10.27,8.6c2.64-.79,6.74-2,5.22-7.09s-5.63-3.87-8.26-3.08l-13.37,4,3.06,10.17Z"/><path class="cls-1" d="M379.21,746c-2.62-7.71,2.24-13.49,11-16.46s16.08-1.36,18.7,6.35-2.24,13.45-10.95,16.42S381.82,753.67,379.21,746ZM404,737.55c-1.69-5-6-6.2-12.45-4s-9.17,5.81-7.47,10.78,6,6.16,12.48,3.95S405.7,742.49,404,737.55Z"/><path class="cls-1" d="M441.43,723.51c2.91,7.61-1.56,13.45-9,16.3-5.35,2.05-9.69,1.85-12.84-.09l4.7,12.3-4.46,1.71-11.35-29.68,4.46-1.71,1.41,3.68c1-3.58,4.13-6.62,9.49-8.67C431.27,714.5,438.51,715.87,441.43,723.51Zm-4.82,1.85c-1.7-4.44-6.33-5.85-12.72-3.4s-8.61,6.48-6.91,10.91,6.36,5.83,12.75,3.39S438.31,729.79,436.61,725.36Z"/><path class="cls-1" d="M464.5,701.49l4.39-1.88,8.82,20.69-4.4,1.87-2-4.62c-1.14,4.52-4.15,8.1-9.91,10.56-7.21,3.07-13.1,2-16.65-6l-4.41-10.35,4.4-1.87,4,9.35c2.24,5.26,5.57,7.2,12.18,4.38,6.32-2.69,9.73-7.67,7.08-13.89Z"/><path class="cls-1" d="M469.91,689.84l4.34-2L487.06,716l-4.34,2Z"/><path class="cls-1" d="M513.12,690.8l5,10.37-4.3,2.08-1.21-2.51a36.84,36.84,0,0,1-12,9.72c-6.3,3-10.61,2.38-12.89-2.36-2.58-5.31,2.16-9.83,8.73-13a43.59,43.59,0,0,1,11.7-3.63c-2.5-4.89-8.89-2.4-11.75-1a36.15,36.15,0,0,0-9.84,6.94l-3.24-2.68A45,45,0,0,1,495,686.48C503.49,682.37,509.2,682.87,513.12,690.8Zm-2.18,6.46-1.05-2.19a40.09,40.09,0,0,0-11.41,3.54c-4.68,2.26-7.34,4.75-6.13,7.25,1.3,2.68,4,2,7.74.21C503.43,704.45,507.88,700.5,510.94,697.26Z"/><path class="cls-1" d="M531.22,669l2,3.83a21.6,21.6,0,0,0-5.62,2c-2.81,1.47-5.27,3.63-7.73,9.14l6.68,12.76L522.32,699,511.88,679l4.23-2.21,1.87,3.55c1.52-5.15,4.14-7.57,7.49-9.32A20.43,20.43,0,0,1,531.22,669Z"/><path class="cls-1" d="M564.76,640.18l4.13-2.4,15.59,26.67-4.13,2.41-2-3.37c-.45,3.7-3,7.19-8,10.06-6.86,4-14.22,3.84-18.33-3.2s-.67-13.56,6.19-17.57c4.91-2.87,9.23-3.42,12.68-2Zm9.92,17c-2.39-4.1-7.23-4.72-13.1-1.29s-7.44,7.79-5,11.89,6.93,4.9,12.84,1.45S577.08,661.25,574.68,657.15Z"/><path class="cls-1" d="M605.52,642.36l4.36-2.76c1.61,5.11-1.28,10.55-8,14.83-7.75,4.91-15.35,5.2-19.73-1.72s-.71-13.82,6.52-18.4,14.76-5.56,20.13,2.92l-21.62,13.71c2.92,3.68,7.08,3.33,12.47-.09C604.48,647.78,605.8,645,605.52,642.36Zm-20.21,5.09,16.75-10.62c-2.77-2.5-6.48-2-11.2,1C586.44,640.6,584.3,643.79,585.31,647.45Z"/><path class="cls-1" d="M627.76,602.53c8.27-5.85,15.38-5.12,19.33-.86l-4.3,3c-2.77-2.58-7.16-2.36-12.49,1.42-8.57,6.07-5.92,12.33-4,15.07s7.24,7.12,15.91,1a23.81,23.81,0,0,0,7.63-8l-2.54-3.59-9.51,6.73L635.44,614l13.57-9.6,6.13,8.66c-2.88,5.92-5.79,9.35-10.46,12.66-8.95,6.34-17.62,5.67-22.69-1.49S618.87,608.83,627.76,602.53Z"/><path class="cls-1" d="M664.74,582l2.61,3.45a21.63,21.63,0,0,0-5.21,2.93c-2.53,1.91-4.59,4.45-6.11,10.29l8.69,11.49L660.91,613l-13.58-17.95,3.81-2.88,2.42,3.2c.66-5.34,2.84-8.16,5.86-10.44A20.46,20.46,0,0,1,664.74,582Z"/><path class="cls-1" d="M696.61,570.54l7.21,9-3.72,3-1.75-2.17a36.74,36.74,0,0,1-9.54,12.17c-5.45,4.38-9.8,4.7-13.09.61-3.7-4.61-.1-10.08,5.59-14.65a44,44,0,0,1,10.59-6.17c-3.53-4.2-9.2-.34-11.67,1.65a36.09,36.09,0,0,0-8,9L668.42,581A45.08,45.08,0,0,1,678,570.4C685.33,564.49,691,563.69,696.61,570.54Zm-.67,6.78-1.53-1.89a40.2,40.2,0,0,0-10.32,6c-4.05,3.26-6.09,6.28-4.35,8.44,1.87,2.32,4.37,1,7.6-1.53C690.22,586,693.68,581.16,695.94,577.32Z"/><path class="cls-1" d="M723.61,547.8l7.32,8.53-3.62,3.11-6.62-7.7c-3.75-4.37-7.48-5.18-12.9-.53-5.24,4.51-7,10.29-2.58,15.41l5.85,6.8-3.63,3.11-14.67-17.07,3.62-3.12,3.27,3.81c-.25-4.63,1.53-8.95,6.28-13C711.87,542,717.8,541.23,723.61,547.8Z"/><path class="cls-1" d="M726.3,545.41c-5.52-6-3.4-13.24,3.41-19.49s14.17-7.73,19.69-1.74,3.38,13.21-3.4,19.44S731.79,551.38,726.3,545.41Zm19.3-17.74c-3.56-3.86-8-3.25-13,1.37s-6,9-2.48,12.88,7.95,3.23,13-1.43S749.13,531.51,745.6,527.67Z"/><path class="cls-1" d="M738.67,507.08l3.45-3.3,21.39,22.31-3.45,3.3Z"/><path class="cls-1" d="M745.72,500.31l3.42-3.34,21.58,22.11-3.41,3.33Z"/><path class="cls-1" d="M786.39,492.77l3.62-3.68c2.72,4.61,1.15,10.56-4.46,16.26-6.43,6.54-13.76,8.54-19.6,2.8s-3.83-13.31,2.18-19.41S781.25,480,788.4,487l-18,18.25c3.69,2.93,7.66,1.64,12.14-2.91C786.6,498.28,787.26,495.29,786.39,492.77Zm-18.54,9.53,13.91-14.14c-3.25-1.81-6.77-.5-10.68,3.48C767.41,495.37,766,499,767.85,502.3Z"/><path class="cls-1" d="M796.87,459.74l3.16,2.95a21.66,21.66,0,0,0-4.63,3.78c-2.16,2.32-3.76,5.16-4.25,11.18l10.54,9.82-3.25,3.5L782,475.62l3.26-3.5,2.94,2.74c-.28-5.37,1.39-8.52,4-11.28A20.17,20.17,0,0,1,796.87,459.74Z"/><path class="cls-1" d="M812.5,464.5c2.54,1.8,5.34.5,10.78-5.66s5.48-7.7,3.83-9.16-2.63-.65-9.25,5.79c-6.77,6.61-10.61,9.84-14.49,6.41-4.16-3.69-1.06-9.47,4.3-15.53s10.41-9.89,15.27-6.24L819.52,444c-2.22-1.5-4.47.17-9.16,5.47s-5,7.32-3.8,8.37,2.45.38,8.85-5.69,10.41-10.48,15-6.46,2,9.12-3.76,15.61-11.91,11.6-17.52,7.1Z"/><path class="cls-1" d="M357.8,502.32l-.21.08-36.07,13.7-.21.08c-27.06,10.29-45.7,37.89-30.61,77.6l21.9,57.64L353,636.08l-10.1-26.56,60.77-23.09L413.74,613l40.38-15.34L432.22,540C417.13,500.3,384.86,492,357.8,502.32Zm34.9,55.29h0L331.93,580.7h0l-3.81-10.05A15.29,15.29,0,0,1,337,550.92l32.18-12.22a15.29,15.29,0,0,1,19.72,8.86Z"/><path class="cls-1" d="M610,318.34l-.16.16-26.51,28-.16.16c-19.89,21-24.66,54,6.2,83.19l44.8,42.37,29.68-31.38-20.64-19.53,44.66-47.23,20.65,19.53,29.68-31.39-44.8-42.37C662.51,290.7,629.86,297.31,610,318.34Zm55.47,34.59h0l-44.66,47.22h0L613,392.78a15.29,15.29,0,0,1-.61-21.62l23.66-25a15.29,15.29,0,0,1,21.61-.6Z"/></g></svg>